<svg id="Calque_1" data-name="Calque 1" xmlns="http://www.w3.org/2000/svg" viewBox="0 0 465.73 131.05"><title>Sans titre - 1</title><path d="M413.76,215.64a.59.59,0,0,0,0-.13c-.48-11.16-10.38-19.84-22.12-19.39s-20.86,9.87-20.38,21,10.38,19.84,22.11,19.39c11.42-.45,20.43-9.4,20.41-20.27,0-.18,0-.36,0-.54A.31.31,0,0,0,413.76,215.64Zm-35.64-12.9a20.87,20.87,0,0,1,28.48,0,18.78,18.78,0,0,1,5.86,12.32h-2v0a.62.62,0,0,0-.63-.6h-2V213.1a.62.62,0,0,0-.63-.6h-1.38v-1.32a.61.61,0,0,0-.63-.59.61.61,0,0,0-.63.59v1.32h0a.62.62,0,0,0-.63.6v0H403v-6.42a.62.62,0,0,0-.63-.59h-2.69a.6.6,0,0,0-.62.59v5.78h-.76v-1.31a.62.62,0,0,0-.63-.6h-2v-3.87a.59.59,0,0,0-.31-.51L392,204.3a.64.64,0,0,0-.86.2.56.56,0,0,0-.09.31V208h-1.43v-4.48h0V201a.63.63,0,0,0-1.25,0h0v2.14l-3,1.13a.6.6,0,0,0-.39.55v6.41H383.6v-1.31a.6.6,0,0,0-.62-.59H380.3a.62.62,0,0,0-.63.59h0v2.13l-1.42.54v-1.41a.63.63,0,0,0-1.26,0v1.89l-.27.1a.6.6,0,0,0-.4.56v.68h-2.05a.61.61,0,0,0-.63.59h0v.69h-1.41A18.59,18.59,0,0,1,378.12,202.74Zm34.38,13.54a18.83,18.83,0,0,1-.18,2.6h-1.91v-2.64h2.09Zm-4.77,2.6v-3.27h1.42v3.27Zm-4.69,0v-4.55h.75v4.55Zm-4.69,0v-5.19h.75v5.19Zm-4,0v-.81l2.76-.44v1.25Zm-2,12.74a.61.61,0,0,0-.63.59h0v3.22a21.09,21.09,0,0,1-7.24-1.5l7.87-13.25,7.87,13.25a21.09,21.09,0,0,1-7.24,1.5v-3.22A.63.63,0,0,0,392.36,231.62Zm-6.07-12.74V205.22l2.09-.79v14.45Zm-2.68,0v-6.46H385v6.46Zm-4,0v-2h2.76v2Zm-2,0v-4.74l2.09-.8v2.35H379a.64.64,0,0,0-.63.6v2.59Zm-2.68,0v-3.27h1.42v3.27Zm-2.5,0a19,19,0,0,1-.17-2h1.41v2Zm10-3.19h-1.42v-3.22h0v-2h1.42Zm7.29-6.45h1.42v9.64h-1.42Zm2.73,9.64h-.05v-13l2.09,1.19v9.78l-.81.13a.59.59,0,0,0-.53.59v1.32Zm4.72-2.46-1.42.22v-4.85h1.42Zm3.27-9.1h1.43v11.56h-1.43Zm4.69,6.37h1.42v5.19h-1.42Zm-32.43,6.38h18.67l-7.94,13.35A19.38,19.38,0,0,1,372.62,220.07Zm34,9.76a20.1,20.1,0,0,1-5.23,3.59l-7.94-13.35h18.67a18.73,18.73,0,0,1-5.51,9.76Z" transform="translate(-48.66 -145.02)" style="fill:#e8461a"/><g style="isolation:isolate"><text transform="translate(0 47.76)" style="isolation:isolate;font-size:32.69005584716797px;fill:#e8461a;font-family:BerlinSansFBDemi-Bold, Berlin Sans FB Demi;font-weight:700">G<tspan x="23.24" y="0" style="fill:#1d1d1b;font-size:56.69291305541992px">é</tspan><tspan x="51.64" y="0" style="letter-spacing:-0.000029873381206982623em">OPORTAIL de l’urbanisation</tspan></text><text x="-48.66" y="-145.02" style="isolation:isolate"/><text transform="translate(366.61 83.86)" style="font-size:24.253345489501953px;fill:#1d1d1b;font-family:Amstrike">Maroc.</text></g></svg>